<svg
        viewBox="0 0 18 18"
        fill="none"
        xmlns="http://www.w3.org/2000/svg"
>
    <g clip-path="url(#clip0_4_323)">
        <rect y="3" width="18" height="12" rx="2" fill="#EE343C" />
        <path fill-rule="evenodd" clip-rule="evenodd" d="M0 15H18V11H0V15Z" fill="#12833B" />
        <rect y="3" width="3" height="12" fill="#F3F3F3" />
        <rect y="4" width="1" height="1" fill="#EE343C" />
        <rect y="6" width="1" height="1" fill="#EE343C" />
        <rect y="8" width="1" height="1" fill="#EE343C" />
        <rect y="10" width="1" height="1" fill="#EE343C" />
        <rect y="12" width="1" height="1" fill="#EE343C" />
        <rect y="14" width="1" height="1" fill="#EE343C" />
        <rect x="1" y="3" width="1" height="1" fill="#EE343C" />
        <rect x="1" y="5" width="1" height="1" fill="#EE343C" />
        <rect x="1" y="7" width="1" height="1" fill="#EE343C" />
        <rect x="1" y="9" width="1" height="1" fill="#EE343C" />
        <rect x="1" y="11" width="1" height="1" fill="#EE343C" />
        <rect x="1" y="13" width="1" height="1" fill="#EE343C" />
        <rect x="2" y="4" width="1" height="1" fill="#EE343C" />
        <rect x="2" y="6" width="1" height="1" fill="#EE343C" />
        <rect x="2" y="8" width="1" height="1" fill="#EE343C" />
        <rect x="2" y="10" width="1" height="1" fill="#EE343C" />
        <rect x="2" y="12" width="1" height="1" fill="#EE343C" />
        <rect x="2" y="14" width="1" height="1" fill="#EE343C" />
    </g>
    <defs>
        <clipPath id="clip0_4_323">
            <rect y="3" width="18" height="12" rx="2" fill="white" />
        </clipPath>
    </defs>
</svg>